<svg width="43" height="22" viewBox="0 0 43 22" fill="none" xmlns="http://www.w3.org/2000/svg">
<g clip-path="url(#clip0_1283:138568)">
<path d="M15.2543 7.74573L11.5616 21.7831H10.4264C9.3202 21.7831 8.21362 21.7793 7.10705 21.7868C6.93735 21.7868 6.8581 21.7453 6.80333 21.5727C5.03497 15.9719 3.26232 10.372 1.48539 4.77287C1.01239 3.27918 0.539249 1.7855 0.0659711 0.291807C0.0452254 0.227081 0.0269694 0.16111 0 0.0694143H0.24148C1.86628 0.0694143 3.4915 0.0731474 5.1163 0.0644343C5.31048 0.0644343 5.38433 0.116299 5.4337 0.308404C6.66821 5.10148 7.90742 9.89318 9.15133 14.6835C9.16792 14.7482 9.18867 14.8121 9.22352 14.9324C9.44675 14.0254 9.65669 13.1749 9.86498 12.3243C10.85 8.30129 11.8339 4.27802 12.8167 0.254465C12.8495 0.119204 12.8997 0.0660947 13.0486 0.0665096C14.5561 0.0731482 16.0636 0.0731482 17.5712 0.0665096C17.7176 0.0665096 17.7691 0.112979 17.8035 0.25405C18.9741 5.04934 20.1481 9.8438 21.3253 14.6374C21.3431 14.71 21.3639 14.7818 21.3983 14.9092C21.4353 14.8009 21.4601 14.7432 21.4759 14.6814C22.711 9.90991 23.9438 5.13841 25.1745 0.366906C25.2325 0.140779 25.3114 0.0623603 25.5537 0.0611155C27.1507 0.0519874 28.7485 0.0241877 30.3447 0.00219727C30.4061 0.00219727 30.4692 0.00219727 30.5575 0.00219727C30.4629 0.302595 30.3754 0.583076 30.2862 0.863558C28.1043 7.74531 25.9236 14.6275 23.7442 21.5101C23.692 21.676 23.6198 21.7154 23.4563 21.7146C22.0528 21.708 20.6491 21.708 19.2453 21.7146C19.0528 21.7146 18.9732 21.6657 18.9225 21.4744C17.7345 16.9549 16.5422 12.4363 15.3456 7.91874C15.3298 7.859 15.3107 7.80008 15.2933 7.74116L15.2543 7.74573Z" fill="#F4FF00"/>
<path d="M35.1543 18.3743C35.151 16.3242 36.6949 14.7608 38.7292 14.7542C40.7884 14.7475 42.3132 16.274 42.3157 18.3444C42.3186 20.4555 40.8166 21.9873 38.7412 21.9898C36.6745 21.9911 35.158 20.4634 35.1543 18.3743Z" fill="#F4FF00"/>
</g>
<defs>
<clipPath id="clip0_1283:138568">
<rect width="42.3158" height="21.99" fill="white"/>
</clipPath>
</defs>
</svg>
