<svg xmlns="http://www.w3.org/2000/svg" xmlns:xlink="http://www.w3.org/1999/xlink" width="500" zoomAndPan="magnify" viewBox="0 0 375 374.999991" height="500" preserveAspectRatio="xMidYMid meet" version="1.0"><defs><clipPath id="03e0016f40"><path d="M 0 1 L 373 1 L 373 374 L 0 374 Z M 0 1 " clip-rule="nonzero"/></clipPath><clipPath id="8ae6d78fd0"><path d="M -77.664062 187.5 L 185.378906 -75.542969 L 448.421875 187.5 L 185.378906 450.542969 Z M -77.664062 187.5 " clip-rule="nonzero"/></clipPath><clipPath id="e2d930746b"><path d="M -77.664062 187.5 L 185.378906 -75.542969 L 448.421875 187.5 L 185.378906 450.542969 Z M -77.664062 187.5 " clip-rule="nonzero"/></clipPath></defs><g clip-path="url(#03e0016f40)"><g clip-path="url(#8ae6d78fd0)"><g clip-path="url(#e2d930746b)"><path fill="#f4ff00" d="M 186.65625 373.445312 C 289.351562 373.445312 372.601562 290.195312 372.601562 187.5 C 372.601562 84.804688 289.351562 1.554688 186.65625 1.554688 C 83.960938 1.554688 0.710938 84.804688 0.710938 187.5 C 0.710938 290.195312 83.960938 373.445312 186.65625 373.445312 Z M 98.324219 198.453125 L 84.464844 198.53125 C 88.136719 230.027344 99.191406 254.660156 117.636719 272.429688 C 136.082031 290.207031 159.785156 299.011719 188.738281 298.847656 C 217.691406 298.683594 241.324219 289.617188 259.640625 271.628906 C 277.960938 253.652344 288.773438 228.894531 292.082031 197.363281 L 277.996094 197.441406 C 267.207031 246.132812 237.398438 270.621094 188.578125 270.894531 C 139.753906 271.171875 109.667969 247.023438 98.324219 198.453125 Z M 111.917969 152.238281 C 117.398438 157.664062 124 160.355469 131.726562 160.3125 C 139.449219 160.269531 146.054688 157.5 151.554688 152.015625 C 157.050781 146.53125 159.773438 139.925781 159.730469 132.203125 C 159.683594 124.472656 156.925781 117.894531 151.441406 112.472656 C 145.960938 107.050781 139.277344 104.359375 131.40625 104.402344 C 123.679688 104.449219 117.109375 107.214844 111.691406 112.699219 C 106.269531 118.183594 103.578125 124.789062 103.625 132.515625 C 103.667969 140.242188 106.433594 146.816406 111.917969 152.238281 Z M 224.238281 151.605469 C 229.796875 157.027344 236.441406 159.722656 244.164062 159.679688 C 251.886719 159.632812 258.457031 156.867188 263.878906 151.382812 C 269.296875 145.898438 271.984375 139.292969 271.941406 131.566406 C 271.894531 123.839844 269.132812 117.265625 263.652344 111.839844 C 258.167969 106.417969 251.566406 103.726562 243.84375 103.769531 C 236.121094 103.8125 229.507812 106.578125 224.011719 112.0625 C 218.519531 117.550781 215.789062 124.152344 215.835938 131.882812 C 215.878906 139.609375 218.679688 146.183594 224.238281 151.605469 Z M 224.238281 151.605469 " fill-opacity="1" fill-rule="evenodd"/></g></g></g></svg>