<svg xmlns="http://www.w3.org/2000/svg" xmlns:xlink="http://www.w3.org/1999/xlink" width="500" zoomAndPan="magnify" viewBox="0 0 375 374.999991" height="500" preserveAspectRatio="xMidYMid meet" version="1.0"><defs><clipPath id="9da1e8765e"><path d="M 0 27.613281 L 317 27.613281 L 317 345 L 0 345 Z M 0 27.613281 " clip-rule="nonzero"/></clipPath><clipPath id="48ade490b4"><path d="M 331 303 L 375 303 L 375 347.113281 L 331 347.113281 Z M 331 303 " clip-rule="nonzero"/></clipPath></defs><path fill="#f4ff00" d="M 356.480469 326.839844 C 359.726562 326.871094 362.386719 324.269531 362.414062 321.027344 C 362.414062 320.894531 362.414062 320.757812 362.414062 320.625 C 362.414062 316.214844 359.753906 314.121094 354.316406 314.121094 L 345.511719 314.121094 L 345.511719 337.167969 L 348.828125 337.167969 L 348.828125 327.125 L 352.894531 327.125 L 352.984375 327.246094 L 359.304688 337.167969 L 362.847656 337.167969 L 356.046875 326.902344 L 356.496094 326.839844 Z M 352.65625 324.523438 L 348.8125 324.523438 L 348.8125 316.738281 L 353.6875 316.738281 C 356.199219 316.738281 359.066406 317.15625 359.066406 320.445312 C 359.066406 324.226562 356.167969 324.539062 352.640625 324.539062 " fill-opacity="1" fill-rule="nonzero"/><g clip-path="url(#9da1e8765e)"><path fill="#f4ff00" d="M 270.078125 297.949219 L 223.117188 297.949219 L 223.117188 224.402344 C 223.117188 206.867188 222.804688 184.285156 198.695312 184.285156 C 174.585938 184.285156 170.492188 203.402344 170.492188 223.128906 L 170.492188 297.949219 L 123.53125 297.949219 L 123.53125 146.695312 L 168.621094 146.695312 L 168.621094 167.367188 L 169.25 167.367188 C 178.441406 151.640625 195.542969 142.257812 213.730469 142.929688 C 261.335938 142.929688 270.109375 174.242188 270.109375 214.96875 L 270.109375 297.949219 Z M 70.515625 126.023438 C 55.464844 126.023438 43.253906 113.828125 43.253906 98.777344 C 43.253906 83.726562 55.449219 71.515625 70.5 71.515625 C 85.550781 71.515625 97.761719 83.710938 97.761719 98.761719 C 97.761719 113.8125 85.566406 126.023438 70.515625 126.023438 M 94.011719 297.949219 L 46.992188 297.949219 L 46.992188 146.695312 L 94.011719 146.695312 Z M 293.5 27.886719 L 23.390625 27.886719 C 10.625 27.753906 0.148438 37.976562 0 50.742188 L 0 321.96875 C 0.148438 334.75 10.613281 344.972656 23.390625 344.835938 L 293.5 344.835938 C 306.292969 345 316.800781 334.761719 316.980469 321.96875 L 316.980469 50.726562 C 316.800781 37.933594 306.292969 27.707031 293.5 27.871094 " fill-opacity="1" fill-rule="nonzero"/></g><g clip-path="url(#48ade490b4)"><path fill="#f4ff00" d="M 353.042969 303.855469 C 341.101562 303.972656 331.523438 313.734375 331.640625 325.675781 C 331.761719 337.617188 341.519531 347.199219 353.460938 347.078125 C 365.40625 346.960938 374.984375 337.199219 374.867188 325.257812 C 374.746094 313.480469 365.238281 303.960938 353.460938 303.855469 L 353.042969 303.855469 M 353.042969 344.613281 C 342.582031 344.792969 333.957031 336.4375 333.777344 325.976562 C 333.597656 315.511719 341.953125 306.886719 352.417969 306.710938 C 362.878906 306.53125 371.503906 314.886719 371.683594 325.347656 L 371.683594 325.660156 C 371.90625 335.898438 363.777344 344.375 353.539062 344.597656 L 353.042969 344.597656 " fill-opacity="1" fill-rule="nonzero"/></g></svg>