<svg width="67" height="13" viewBox="0 0 67 13" fill="none" xmlns="http://www.w3.org/2000/svg">
<path d="M6.53269 3.22607C10.0551 3.22607 12.5369 4.38164 12.9853 7.15816H10.1832C9.81501 5.93826 8.51798 5.52104 6.53269 5.52104C4.17897 5.52104 2.73801 6.14687 2.73801 8.12097C2.73801 10.0792 4.17897 10.705 6.53269 10.705C8.51798 10.705 9.81501 10.2878 10.1832 9.06792H12.9853C12.5369 11.8444 10.0551 13 6.53269 13C2.62572 13 0 11.5876 0 8.12097C0 4.63842 2.62572 3.22607 6.53269 3.22607Z" fill="#F4FF00"/>
<path d="M18.4134 5.68139V8.40973C18.4134 10.2396 18.7657 10.7049 20.4309 10.7049C21.2953 10.7049 21.7757 10.7049 22.8805 10.5445V12.7593C21.968 12.9197 20.9271 12.9999 19.6623 12.9999C17.2286 12.9999 15.6593 12.0853 15.6593 9.99862V5.68139H13.1777V3.38642H15.6593V1.42849L18.4134 0.641968V3.38647H22.8805V5.68143H18.4134V5.68139Z" fill="#F4FF00"/>
<path d="M37.1307 7.60738L37.0988 12.8396H34.345V8.65068C34.345 6.64453 33.6723 5.60122 31.4147 5.60122C29.5733 5.60122 27.5881 6.54817 26.7395 7.5433V12.8396H24.0015V0H26.7395V5.03942C28.0843 3.98021 29.9418 3.22602 32.2313 3.22602C34.7451 3.22606 37.0988 4.12479 37.1307 7.60738Z" fill="#F4FF00"/>
<path d="M51.1401 0V12.8395H48.4021V11.3631C47.3773 12.4381 45.728 12.9999 43.6946 12.9999C40.6685 12.9999 38.0747 11.7321 38.0747 8.12086C38.0747 4.50991 40.6685 3.22597 43.6946 3.22597C45.728 3.22597 47.3773 3.78746 48.4021 4.86279V0H51.1401ZM48.4021 8.12095C48.4021 6.24321 47.057 5.52102 44.6074 5.52102C42.1576 5.52102 40.8286 6.24321 40.8286 8.12095C40.8286 9.98284 42.1576 10.705 44.6074 10.705C47.057 10.705 48.4021 9.98279 48.4021 8.12095Z" fill="#F4FF00"/>
<path d="M62.6366 3.54682V5.84178C61.74 5.61731 61.0195 5.52092 60.2187 5.52092C58.6816 5.52092 56.9205 5.87406 55.2554 7.17389V12.8394H52.5173V3.38638H55.2554V4.99118C56.6644 3.72337 58.3295 3.22595 60.0909 3.22595C61.2115 3.226 61.9962 3.38638 62.6366 3.54682Z" fill="#F4FF00"/>
<path d="M66.4948 0V12.8395H63.7568V0H66.4948Z" fill="#F4FF00"/>
</svg>
